<svg width="24" height="24" viewBox="0 0 24 24" fill="none" xmlns="http://www.w3.org/2000/svg">
<path d="M12 22.75C17.9371 22.75 22.75 17.9371 22.75 12C22.75 6.06294 17.9371 1.25 12 1.25C6.06294 1.25 1.25 6.06294 1.25 12C1.25 17.9371 6.06294 22.75 12 22.75Z" fill="#FF4513"/>
<path d="M11 15.5C10.7348 15.4994 10.4807 15.3939 10.293 15.2066L7.293 12.2071C7.19896 12.1145 7.12418 12.0042 7.07297 11.8826C7.02175 11.761 6.99512 11.6304 6.99461 11.4984C6.99409 11.3665 7.0197 11.2357 7.06996 11.1137C7.12022 10.9917 7.19414 10.8808 7.28745 10.7875C7.38076 10.6942 7.49162 10.6203 7.61364 10.57C7.73566 10.5198 7.86641 10.4941 7.99838 10.4946C8.13034 10.4952 8.26089 10.5218 8.38252 10.573C8.50414 10.6242 8.61442 10.699 8.707 10.793L10.9658 13.0513L15.2607 8.3277C15.349 8.23062 15.4556 8.15189 15.5744 8.096C15.6931 8.04011 15.8217 8.00816 15.9528 8.00197C16.0839 7.99578 16.215 8.01547 16.3385 8.05992C16.462 8.10438 16.5755 8.17272 16.6726 8.26105C16.7697 8.34937 16.8484 8.45596 16.9043 8.57471C16.9602 8.69347 16.9921 8.82207 16.9983 8.95317C17.0045 9.08428 16.9848 9.21532 16.9404 9.33881C16.8959 9.4623 16.8276 9.57583 16.7392 9.67291L11.7392 15.1724C11.6482 15.2726 11.5379 15.3532 11.4149 15.4095C11.2918 15.4659 11.1587 15.4966 11.0234 15.5001L11 15.5Z" fill="white"/>
</svg>
