<svg width="80" height="80" viewBox="0 0 80 80" fill="none" xmlns="http://www.w3.org/2000/svg">
<path fill-rule="evenodd" clip-rule="evenodd" d="M20.6544 50.5574C20.6544 44.7264 33.9203 39.9955 50.2903 39.9955C66.6558 39.9955 79.9217 44.7266 79.9217 50.5574V60.2649C79.9217 66.0958 66.6558 70.8267 50.2903 70.8267C33.9203 70.8267 20.6544 66.0956 20.6544 60.2649C20.6544 57.0291 20.6544 53.7931 20.6544 50.5574Z" fill="#FF4513"/>
<path fill-rule="evenodd" clip-rule="evenodd" d="M50.2905 39.9955C66.6559 39.9955 79.9219 44.7266 79.9219 50.5574C79.9219 56.3927 66.6559 61.1192 50.2905 61.1192C33.9205 61.1192 20.6545 56.3928 20.6545 50.5574C20.6544 44.7264 33.9205 39.9955 50.2905 39.9955Z" fill="#FF9783"/>
<path fill-rule="evenodd" clip-rule="evenodd" d="M50.2905 44.9309C63.3111 44.9309 73.8639 47.4532 73.8639 50.5573C73.8639 53.6659 63.3111 56.1836 50.2905 56.1836C37.2699 56.1836 26.7125 53.6657 26.7125 50.5573C26.7125 47.4532 37.2699 44.9309 50.2905 44.9309Z" fill="#FF7555"/>
<path d="M35.2885 64.9231L37.8199 64.9276V69.845C36.9519 69.704 36.1111 69.545 35.2885 69.3723V64.9231ZM71.9095 62.319V67.4864C72.823 67.1364 73.6683 66.7684 74.4455 66.382V62.3145L71.9095 62.319ZM44.4414 70.6176C45.2777 70.6812 46.123 70.7267 46.9774 70.7586V66.0594L44.4414 66.0639V70.6176ZM26.1308 66.382C26.908 66.7684 27.7533 67.1364 28.6667 67.4864V62.3145L26.1308 62.319V66.382ZM53.5989 70.7586C54.4578 70.7267 55.2986 70.6767 56.1303 70.6176V66.0639L53.5989 66.0594V70.7586ZM62.7566 69.845C63.6245 69.704 64.4699 69.545 65.288 69.3723V64.9276L62.7566 64.9231V69.845Z" fill="#D63009"/>
<path d="M8.77907 62.2917V65.4368H11.9195V67.6817H8.77907V70.8267H6.53407V67.6817H3.38907V65.4368H6.53407V62.2917H8.77907Z" fill="#FF7555"/>
<path d="M66.2333 27.8475V30.9923H69.3782V33.2329H66.2333V36.3778H63.9882V33.2329H60.8478V30.9923H63.9882V27.8475H66.2333Z" fill="#FF7555"/>
<path d="M10.288 9.17328V12.3183H13.4284V14.5587H10.288V17.7037H8.04282V14.5587H4.89798V12.3183H8.04282V9.17328H10.288Z" fill="#FF7555"/>
<path fill-rule="evenodd" clip-rule="evenodd" d="M0.621419 45.0674C-2.29624 40.0136 6.82954 29.2836 21.0044 21.1031C35.1794 12.9181 49.0316 10.3822 51.9492 15.4313C53.5672 18.2353 55.185 21.0349 56.803 23.8344C59.7206 28.8881 50.5949 39.6181 36.42 47.7986C22.2452 55.9836 8.39283 58.5241 5.47517 53.4703C3.8572 50.6709 2.23939 47.8669 0.621419 45.0674Z" fill="#FF4513"/>
<path fill-rule="evenodd" clip-rule="evenodd" d="M21.0044 21.1031C35.1794 12.9181 49.0316 10.3822 51.9492 15.4313C54.8669 20.485 45.7411 31.215 31.5663 39.3955C17.3959 47.5805 3.53908 50.1164 0.621419 45.0672C-2.29624 40.0136 6.82954 29.2836 21.0044 21.1031Z" fill="#FF9783"/>
<path fill-rule="evenodd" clip-rule="evenodd" d="M23.4722 25.3751C34.7477 18.8672 45.1505 15.7722 46.7047 18.4626C48.2589 21.1531 40.3739 28.6109 29.0986 35.1236C17.8231 41.6315 7.42484 44.7265 5.87062 42.0361C4.3164 39.3456 12.1967 31.8876 23.4722 25.3751Z" fill="#FF7555"/>
<path d="M31.1709 45.3309L33.5206 49.3984C32.7617 49.7984 32.0072 50.1802 31.2528 50.5436L28.9759 46.5989L31.1709 45.3309ZM11.2469 52.5116L13.2784 56.0291C14.1419 55.9791 15.06 55.8745 16.0234 55.72L13.442 51.2436L11.2469 52.5116ZM20.4772 50.1892L22.7041 54.0431C23.4994 53.7841 24.3083 53.4976 25.1309 53.1887L22.6722 48.9258L20.4772 50.1892ZM36.9063 42.0178L39.2559 46.0853C39.9786 45.6309 40.6875 45.1673 41.3783 44.6992L39.1014 40.7589L36.9063 42.0178ZM53.0855 28.3519L50.8903 29.6244L53.4763 34.0964C54.0899 33.342 54.6397 32.5966 55.1169 31.8739L53.0855 28.3519ZM44.2688 36.4552L46.7275 40.7181C47.4092 40.1636 48.0591 39.6047 48.6817 39.0456L46.4594 35.1962L44.2688 36.4552Z" fill="#D63009"/>
</svg>
