<svg width="24" height="24" viewBox="0 0 24 24" fill="none" xmlns="http://www.w3.org/2000/svg">
<path fill-rule="evenodd" clip-rule="evenodd" d="M5.76912 6.12104C8.89912 5.50104 11.6991 7.31104 12.6491 10.001H20.9991C22.0991 10.001 22.9991 10.901 22.9991 12.001C22.9991 13.101 22.0991 14.001 20.9991 14.001V16.001C20.9991 17.101 20.0991 18.001 18.9991 18.001C17.8991 18.001 16.9991 17.101 16.9991 16.001V14.001H12.6491C11.8291 16.331 9.60912 18.001 6.99912 18.001C3.25912 18.001 0.319116 14.571 1.13912 10.701C1.61912 8.41104 3.47912 6.58104 5.76912 6.12104ZM4.99912 12.001C4.99912 13.101 5.89912 14.001 6.99912 14.001C8.09912 14.001 8.99912 13.101 8.99912 12.001C8.99912 10.901 8.09912 10.001 6.99912 10.001C5.89912 10.001 4.99912 10.901 4.99912 12.001Z" fill="#FF4513"/>
</svg>
