<svg width="80" height="80" viewBox="0 0 80 80" fill="none" xmlns="http://www.w3.org/2000/svg">
<path fill-rule="evenodd" clip-rule="evenodd" d="M40 0.078125L72.1002 12.3583V48.6306C67.46 65.1239 55.7661 74.5544 40 79.9219C24.2339 74.5544 12.5402 65.1239 7.89984 48.6306V12.3583L40 0.078125Z" fill="#8E68D8"/>
<path fill-rule="evenodd" clip-rule="evenodd" d="M40 0.078125L72.1002 12.3583V48.6306C67.46 65.1239 55.7661 74.5544 40 79.9219V0.078125Z" fill="#4C13A2"/>
<path fill-rule="evenodd" clip-rule="evenodd" d="M40 6.6181L13.9217 16.594V47.7125C17.9303 61.0789 27.3427 68.7597 40 73.4409C52.6573 68.7597 62.0652 61.0789 66.0737 47.7125V16.594L40 6.6181Z" fill="#9E81E2"/>
<path fill-rule="evenodd" clip-rule="evenodd" d="M40 73.4409C52.6573 68.7597 62.0652 61.0789 66.0738 47.7125V16.594L40 6.6181V73.4409Z" fill="#8E68D8"/>
<path fill-rule="evenodd" clip-rule="evenodd" d="M44.872 21.7889C45.8809 22.0979 46.8491 22.5023 47.7625 22.9887L52.6436 20.1209L57.5247 25.002L54.6569 29.8831C55.1431 30.7967 55.5477 31.7647 55.8567 32.7736L61.3333 34.1915V41.0997L55.8567 42.5222C55.5431 43.5265 55.1431 44.4947 54.6569 45.4081L57.5247 50.2892L52.6436 55.1748L47.7625 52.3025C46.8491 52.7887 45.8809 53.1933 44.872 53.5023L43.4541 58.9789H36.5459L35.1234 53.5023C34.1191 53.1933 33.1509 52.7887 32.2375 52.3025L27.3564 55.1748L22.4708 50.2892L25.3431 45.4081C24.8569 44.4947 24.4523 43.5265 24.1433 42.5222L18.6667 41.0997V34.1915L24.1433 32.7736C24.4523 31.7647 24.8569 30.7965 25.3431 29.8831L22.4708 25.002L27.3564 20.1209L32.2375 22.9887C33.1509 22.5025 34.1191 22.0979 35.1234 21.7889L36.5459 16.3123H43.4541L44.872 21.7889ZM40 27.5653C45.5675 27.5653 50.0805 32.0783 50.0805 37.6458C50.0805 43.2133 45.5675 47.7262 40 47.7262C34.4325 47.7262 29.9195 43.2131 29.9195 37.6458C29.9195 32.0784 34.4325 27.5653 40 27.5653Z" fill="#EAF6FF"/>
<path fill-rule="evenodd" clip-rule="evenodd" d="M44.872 21.7889C45.8809 22.0979 46.8491 22.5023 47.7625 22.9887L52.6436 20.1209L57.5247 25.002L54.6569 29.8831C55.1431 30.7967 55.5477 31.7647 55.8567 32.7736L61.3333 34.1915V41.0997L55.8567 42.5222C55.5431 43.5265 55.1431 44.4947 54.6569 45.4081L57.5247 50.2892L52.6436 55.1748L47.7625 52.3025C46.8491 52.7887 45.8809 53.1933 44.872 53.5023L43.4541 58.9789H40V47.7259C45.5675 47.7259 50.0805 43.2128 50.0805 37.6454C50.0805 32.0781 45.5675 27.5653 40 27.5653V16.3123H43.4541L44.872 21.7889Z" fill="#A2CFF2"/>
<path d="M42.6361 36.5822C42.6361 37.6339 42.0144 38.5403 41.1226 38.9631V41.1163C41.1226 41.7363 40.62 42.2389 40.0002 42.2389C39.3802 42.2389 38.8777 41.7363 38.8777 41.1163V38.9631C37.9859 38.5403 37.3642 37.6339 37.3642 36.5822C37.3642 35.1325 38.5505 33.9508 40.0003 33.9508C41.4498 33.9508 42.6361 35.1325 42.6361 36.5822Z" fill="#EAF6FF"/>
</svg>
