<svg width="80" height="80" viewBox="0 0 80 80" fill="none" xmlns="http://www.w3.org/2000/svg">
<g clip-path="url(#clip0_1_447)">
<path fill-rule="evenodd" clip-rule="evenodd" d="M24.8486 4.32657C28.948 8.42595 30.0797 14.3706 28.2481 19.4881L60.5119 51.7519C65.6294 49.9203 71.5739 51.052 75.6734 55.1514C79.773 59.2508 80.9045 65.1955 79.073 70.313L68.2881 59.5281L59.5303 68.2861L70.3152 79.071C65.1977 80.907 59.2531 79.7708 55.1536 75.6714C51.0541 71.572 49.918 65.6274 51.7539 60.5099L19.4901 28.2461C14.3726 30.0822 8.42811 28.9459 4.32858 24.8466C0.229049 20.747 -0.907045 14.8025 0.929049 9.68501L11.7094 20.4699L20.4719 11.7119L9.68702 0.927043C14.8044 -0.904519 20.7491 0.227199 24.8486 4.32657Z" fill="#A2CFF2"/>
<path fill-rule="evenodd" clip-rule="evenodd" d="M67.4926 76.2486L70.315 79.0709C65.1975 80.907 59.253 79.7708 55.1534 75.6714C51.0539 71.572 49.9178 65.6273 51.7537 60.5098L19.4901 28.2461C14.3726 30.0822 8.42811 28.9459 4.32858 24.8466C0.229049 20.747 -0.907045 14.8025 0.929049 9.685L3.75139 12.5073C4.08311 15.7023 5.47389 18.8066 7.91905 21.2561C12.0184 25.3555 17.9631 26.4872 23.0851 24.6556L55.3444 56.9148C53.5128 62.0369 54.6445 67.9816 58.7439 72.0809C61.1936 74.5261 64.2976 75.9169 67.4926 76.2486Z" fill="#86BDE9"/>
<path fill-rule="evenodd" clip-rule="evenodd" d="M63.7387 12.0574L65.0384 8.20332L71.4012 3.11316L75.0281 4.97207L76.8868 8.59878L71.7967 14.9616L67.9426 16.2613L43.655 40.5535L39.4465 36.345L63.7387 12.0574Z" fill="#A2CFF2"/>
<path fill-rule="evenodd" clip-rule="evenodd" d="M0.929049 9.68501C-0.907045 14.8025 0.229049 20.7472 4.32858 24.8466C8.42796 28.9459 14.3726 30.0822 19.4901 28.2461L28.2481 19.4881C30.0797 14.3706 28.948 8.42595 24.8486 4.32657C20.7491 0.227199 14.8044 -0.904519 9.68702 0.927043L20.4719 11.7119L11.7094 20.4699L0.929049 9.68501Z" fill="#A2CFF2"/>
<path fill-rule="evenodd" clip-rule="evenodd" d="M60.5119 51.7519L51.7539 60.5097C49.9178 65.6272 51.0541 71.5719 55.1536 75.6712C59.253 79.7706 65.1977 80.9069 70.3152 79.0708L59.5303 68.2859L68.2881 59.528L79.073 70.3128C80.9045 65.1953 79.773 59.2506 75.6734 55.1512C71.5739 51.052 65.6294 49.9203 60.5119 51.7519Z" fill="#A2CFF2"/>
<path fill-rule="evenodd" clip-rule="evenodd" d="M63.7387 12.0574L65.0384 8.20332L71.4012 3.11316L74.4098 4.65378L67.2018 10.3713L65.902 14.2207L41.6143 38.5128L39.4465 36.345L63.7387 12.0574Z" fill="#C9E0FD"/>
<path fill-rule="evenodd" clip-rule="evenodd" d="M67.9426 16.2613L71.7967 14.9616L76.8869 8.59878L75.0281 4.97207L71.4012 3.11316L65.0384 8.20332L63.7387 12.0574L67.9426 16.2613Z" fill="#C9E0FD"/>
<path fill-rule="evenodd" clip-rule="evenodd" d="M67.2019 10.3713L74.4098 4.65378L71.4012 3.11316L65.0384 8.20332L63.7387 12.0574L65.902 14.2207L67.2019 10.3713Z" fill="#86BDE9"/>
<path fill-rule="evenodd" clip-rule="evenodd" d="M44.3595 35.6405C46.5139 37.7992 46.3911 41.4261 44.0778 43.7394C41.7645 46.0481 38.1422 46.1755 35.9834 44.0166C33.8245 41.8578 33.9519 38.2355 36.2606 35.9222C38.5739 33.6089 42.2008 33.4863 44.3595 35.6405Z" fill="#FF4513"/>
<path fill-rule="evenodd" clip-rule="evenodd" d="M44.3595 35.6405C44.7276 36.0131 45.0322 36.4312 45.2686 36.8767C43.1325 35.7359 40.3192 36.1541 38.4059 38.0675C36.4926 39.9809 36.079 42.7941 37.2151 44.9302C36.7698 44.6937 36.3562 44.3894 35.9836 44.0167C33.8247 41.858 33.952 38.2356 36.2608 35.9223C38.5739 33.6089 42.2008 33.4862 44.3595 35.6405Z" fill="#D63009"/>
<path fill-rule="evenodd" clip-rule="evenodd" d="M34.4654 39.4355L40.5645 45.5345L40.0465 52.1428L14.6317 77.5575L8.02357 78.0756L1.92435 71.9764L2.44247 65.3683L27.8572 39.9536L34.4654 39.4355Z" fill="#FF4513"/>
<path fill-rule="evenodd" clip-rule="evenodd" d="M34.4654 39.4355L36.6106 41.5806L30.0023 42.0942L4.58763 67.5135L4.0695 74.1216L8.02357 78.0756L1.92435 71.9764L2.44247 65.3683L27.8572 39.9536L34.4654 39.4355Z" fill="#D63009"/>
</g>
<defs>
<clipPath id="clip0_1_447">
<rect width="80" height="80" fill="white"/>
</clipPath>
</defs>
</svg>
