<svg width="80" height="80" viewBox="0 0 80 80" fill="none" xmlns="http://www.w3.org/2000/svg">
<g clip-path="url(#clip0_1_424)">
<path fill-rule="evenodd" clip-rule="evenodd" d="M40 0C50.9062 0 59.827 8.92078 59.827 19.827H51.4072C51.4072 13.5702 46.2569 8.42 40.0002 8.42C33.7478 8.42 28.5977 13.5703 28.5977 19.827V49.8862H20.1733V19.827C20.173 8.92078 29.0984 0 40 0Z" fill="#A2CFF2"/>
<path fill-rule="evenodd" clip-rule="evenodd" d="M40 0C50.9063 0 59.827 8.92078 59.827 19.827H55.5192C55.5192 9.64937 47.7505 1.20219 37.8463 0.118437C38.5564 0.0409375 39.2759 0 40 0ZM37.8461 8.62938C32.6047 9.64937 28.5975 14.3078 28.5975 19.827V49.8862H24.2897V19.827C24.2897 13.5702 29.44 8.42 35.6922 8.42C36.4298 8.41984 37.1494 8.49266 37.8461 8.62938Z" fill="#C9E0FD"/>
<path fill-rule="evenodd" clip-rule="evenodd" d="M15.4827 30.9655H64.5172C67.3906 30.9655 69.7403 33.3151 69.7403 36.1886V74.7769C69.7403 77.6503 67.3906 80 64.5172 80H15.4827C12.6138 80 10.2595 77.6503 10.2595 74.7769V36.1886C10.2595 33.3151 12.6139 30.9655 15.4827 30.9655Z" fill="#FF7555"/>
<path fill-rule="evenodd" clip-rule="evenodd" d="M40 44.103C43.725 44.103 46.7395 47.122 46.7395 50.8425C46.7395 53.8297 44.7952 56.3616 42.0992 57.245V64.7633C42.0992 65.92 41.1566 66.8672 40 66.8672C38.848 66.8672 37.9008 65.92 37.9008 64.7633V57.245C35.2095 56.3616 33.2652 53.8297 33.2652 50.8425C33.265 47.122 36.2795 44.103 40 44.103Z" fill="#D63009"/>
<path fill-rule="evenodd" clip-rule="evenodd" d="M64.0802 36.1886V74.7769C64.0802 77.6503 61.7305 80 58.857 80H64.5173C67.3908 80 69.7405 77.6503 69.7405 74.7769V36.1886C69.7405 33.3151 67.3908 30.9655 64.5173 30.9655H59.827H58.857C59.1895 30.9655 59.5128 30.9973 59.827 31.0565C62.2405 31.5164 64.0802 33.6475 64.0802 36.1886Z" fill="#FF4513"/>
<path fill-rule="evenodd" clip-rule="evenodd" d="M39.0528 44.1712C42.0128 44.8816 44.2122 47.5456 44.2122 50.7195C44.2122 53.7114 42.2631 56.2433 39.5719 57.1266V64.6448C39.5719 65.3598 39.2077 65.9973 38.6566 66.3753C39.0208 66.6805 39.4899 66.8672 39.9999 66.8672C41.1566 66.8672 42.0991 65.92 42.0991 64.7633V57.245C44.7949 56.3616 46.7394 53.8297 46.7394 50.8425C46.7394 47.122 43.7249 44.103 39.9999 44.103C39.6813 44.103 39.3625 44.1256 39.0528 44.1712Z" fill="#D63009"/>
</g>
<defs>
<clipPath id="clip0_1_424">
<rect width="80" height="80" fill="white"/>
</clipPath>
</defs>
</svg>
